<svg width="21" height="21" viewBox="0 0 21 21" fill="none" xmlns="http://www.w3.org/2000/svg">
<path d="M14.5553 7.88904H2.55526C1.81888 7.88904 1.22192 8.48599 1.22192 9.22237V15.889C1.22192 18.0982 3.01278 19.889 5.22192 19.889H11.8886C14.0977 19.889 15.8886 18.0982 15.8886 15.889V9.22237C15.8886 8.48599 15.2916 7.88904 14.5553 7.88904Z" fill="#FFD801" fill-opacity="0.2"/>
<path fill-rule="evenodd" clip-rule="evenodd" d="M10.0553 0.555664H11.0553V5.889H10.0553V0.555664ZM7.05526 3.22233V5.889H6.05526V3.22233H7.05526ZM0.721924 9.22233C0.721924 8.20981 1.54274 7.389 2.55526 7.389H14.5553C15.3944 7.389 16.1019 7.95283 16.3196 8.72233H18.5553C19.5678 8.72233 20.3886 9.54314 20.3886 10.5557V13.2223C20.3886 14.2349 19.5678 15.0557 18.5553 15.0557H16.3886V15.889C16.3886 18.3743 14.3739 20.389 11.8886 20.389H5.22192C2.73664 20.389 0.721924 18.3743 0.721924 15.889V9.22233ZM16.3886 14.0557H18.5553C19.0155 14.0557 19.3886 13.6826 19.3886 13.2223V10.5557C19.3886 10.0954 19.0155 9.72233 18.5553 9.72233H16.3886V14.0557ZM2.55526 8.389C2.09502 8.389 1.72192 8.76209 1.72192 9.22233V15.889C1.72192 17.822 3.28893 19.389 5.22192 19.389H11.8886C13.8216 19.389 15.3886 17.822 15.3886 15.889V9.22233C15.3886 8.76209 15.0155 8.389 14.5553 8.389H2.55526Z" fill="#294992"/>
</svg>
