<svg width="13" height="13" viewBox="0 0 13 13" fill="none" xmlns="http://www.w3.org/2000/svg">
<rect x="0.722168" y="1.625" width="11.5556" height="10.4" fill="#F7EFC4"/>
<path d="M3.35833 7.8975C3.1537 7.8975 2.98218 7.83521 2.84375 7.71062C2.70532 7.58604 2.63611 7.43167 2.63611 7.2475C2.63611 7.06333 2.70532 6.90896 2.84375 6.78437C2.98218 6.65979 3.1537 6.5975 3.35833 6.5975C3.56296 6.5975 3.73449 6.65979 3.87292 6.78437C4.01134 6.90896 4.08056 7.06333 4.08056 7.2475C4.08056 7.43167 4.01134 7.58604 3.87292 7.71062C3.73449 7.83521 3.56296 7.8975 3.35833 7.8975ZM6.55417 7.8975C6.34954 7.8975 6.17801 7.83521 6.03958 7.71062C5.90116 7.58604 5.83194 7.43167 5.83194 7.2475C5.83194 7.06333 5.90116 6.90896 6.03958 6.78437C6.17801 6.65979 6.34954 6.5975 6.55417 6.5975C6.7588 6.5975 6.93032 6.65979 7.06875 6.78437C7.20718 6.90896 7.27639 7.06333 7.27639 7.2475C7.27639 7.43167 7.20718 7.58604 7.06875 7.71062C6.93032 7.83521 6.7588 7.8975 6.55417 7.8975ZM9.62361 7.8975C9.41898 7.8975 9.24745 7.83521 9.10903 7.71062C8.9706 7.58604 8.90139 7.43167 8.90139 7.2475C8.90139 7.06333 8.9706 6.90896 9.10903 6.78437C9.24745 6.65979 9.41898 6.5975 9.62361 6.5975C9.82824 6.5975 9.99977 6.65979 10.1382 6.78437C10.2766 6.90896 10.3458 7.06333 10.3458 7.2475C10.3458 7.43167 10.2766 7.58604 10.1382 7.71062C9.99977 7.83521 9.82824 7.8975 9.62361 7.8975ZM1.08333 13C0.794444 13 0.541667 12.9025 0.325 12.7075C0.108333 12.5125 0 12.285 0 12.025V1.95C0 1.69 0.108333 1.4625 0.325 1.2675C0.541667 1.0725 0.794444 0.975 1.08333 0.975H2.25694V0H3.43056V0.975H9.56944V0H10.7431V0.975H11.9167C12.2056 0.975 12.4583 1.0725 12.675 1.2675C12.8917 1.4625 13 1.69 13 1.95V12.025C13 12.285 12.8917 12.5125 12.675 12.7075C12.4583 12.9025 12.2056 13 11.9167 13H1.08333ZM1.08333 12.025H11.9167V5.0375H1.08333V12.025ZM1.08333 4.0625H11.9167V1.95H1.08333V4.0625Z" fill="#595959"/>
<rect x="2.1665" y="6.17493" width="8.66667" height="2.275" fill="#F7EFC4"/>
<ellipse cx="3.43218" cy="7.39143" rx="0.904348" ry="0.891429" fill="#595959"/>
<ellipse cx="6.32085" cy="7.39143" rx="0.904348" ry="0.891429" fill="#595959"/>
<ellipse cx="9.21001" cy="7.39143" rx="0.904348" ry="0.891429" fill="#595959"/>
</svg>
